<?xml version="1.0" encoding="UTF-8"?>
<!-- Created with Inkscape (http://www.inkscape.org/) -->
<svg width="564.13" height="217.25" version="1.1" viewBox="0 0 564.13 217.25" xmlns="http://www.w3.org/2000/svg"><g fill="#112652"><path transform="scale(1.3333)" d="m2.289 149.68c-0.648 0.129-1.309-0.114-1.719-0.629-0.304-0.434-0.433-0.965-0.363-1.488v-1.852c-0.066-0.523 0.063-1.055 0.363-1.488 0.41-0.516 1.071-0.762 1.719-0.633h2.391c0.644-0.125 1.308 0.117 1.718 0.633 0.301 0.433 0.43 0.965 0.36 1.488v1.852c0.07 0.523-0.059 1.054-0.36 1.488-0.414 0.512-1.074 0.754-1.718 0.629z"/><path transform="scale(1.3333)" d="m26.348 149.68c-0.649 0.129-1.313-0.114-1.723-0.629-0.301-0.434-0.43-0.965-0.359-1.488v-1.852c-0.067-0.523 0.062-1.055 0.359-1.488 0.41-0.516 1.074-0.762 1.723-0.633h2.386c0.649-0.125 1.309 0.117 1.723 0.633 0.301 0.433 0.43 0.965 0.359 1.488v1.852c0.071 0.523-0.058 1.054-0.359 1.488-0.414 0.512-1.074 0.754-1.723 0.629z"/><path transform="scale(1.3333)" d="m50.395 149.68c-0.649 0.129-1.309-0.114-1.719-0.629-0.305-0.434-0.43-0.965-0.364-1.488v-1.852c-0.066-0.523 0.063-1.055 0.364-1.488 0.41-0.516 1.07-0.762 1.719-0.633h2.39c0.645-0.125 1.309 0.117 1.719 0.633 0.301 0.433 0.43 0.965 0.359 1.488v1.852c0.071 0.523-0.058 1.054-0.359 1.488-0.414 0.512-1.074 0.754-1.719 0.629z"/><path transform="scale(1.3333)" d="m369.84 149.68c-0.645 0.125-1.309-0.117-1.719-0.629-0.301-0.434-0.429-0.965-0.363-1.488v-1.852c-0.066-0.523 0.062-1.055 0.363-1.488 0.41-0.516 1.071-0.762 1.719-0.633h2.391c0.644-0.125 1.308 0.117 1.718 0.633 0.301 0.433 0.43 0.965 0.36 1.488v1.852c0.07 0.523-0.059 1.054-0.36 1.488-0.414 0.512-1.074 0.754-1.718 0.629z"/><path transform="scale(1.3333)" d="m393.88 149.68c-0.641 0.125-1.301-0.117-1.711-0.629-0.301-0.434-0.43-0.965-0.36-1.488v-1.852c-0.066-0.523 0.063-1.055 0.36-1.488 0.41-0.512 1.07-0.758 1.711-0.633h2.39c0.645-0.125 1.309 0.117 1.719 0.633 0.301 0.433 0.43 0.965 0.36 1.488v1.852c0.074 0.523-0.055 1.054-0.36 1.488-0.414 0.512-1.074 0.754-1.719 0.629z"/><path transform="scale(1.3333)" d="m417.93 149.68c-0.641 0.125-1.301-0.117-1.707-0.629-0.305-0.434-0.43-0.965-0.364-1.488v-1.852c-0.066-0.523 0.063-1.055 0.364-1.488 0.406-0.512 1.066-0.758 1.707-0.633h2.39c0.649-0.125 1.317 0.117 1.731 0.633 0.301 0.433 0.429 0.965 0.359 1.488v1.852c0.07 0.523-0.058 1.054-0.359 1.488-0.414 0.515-1.082 0.758-1.731 0.629z"/><path transform="scale(1.3333)" d="m2.289 149.68c-0.648 0.129-1.309-0.114-1.719-0.629-0.304-0.434-0.433-0.965-0.363-1.488v-1.852c-0.066-0.523 0.063-1.055 0.363-1.488 0.41-0.516 1.071-0.762 1.719-0.633h2.391c0.644-0.125 1.308 0.117 1.718 0.633 0.301 0.433 0.43 0.965 0.36 1.488v1.852c0.07 0.523-0.059 1.054-0.36 1.488-0.414 0.512-1.074 0.754-1.718 0.629z"/><path transform="scale(1.3333)" d="m26.348 149.68c-0.649 0.129-1.313-0.114-1.723-0.629-0.301-0.434-0.43-0.965-0.359-1.488v-1.852c-0.067-0.523 0.062-1.055 0.359-1.488 0.41-0.516 1.074-0.762 1.723-0.633h2.386c0.649-0.125 1.309 0.117 1.723 0.633 0.301 0.433 0.43 0.965 0.359 1.488v1.852c0.071 0.523-0.058 1.054-0.359 1.488-0.414 0.512-1.074 0.754-1.723 0.629z"/><path transform="scale(1.3333)" d="m50.395 149.68c-0.649 0.129-1.309-0.114-1.719-0.629-0.305-0.434-0.43-0.965-0.364-1.488v-1.852c-0.066-0.523 0.063-1.055 0.364-1.488 0.41-0.516 1.07-0.762 1.719-0.633h2.39c0.645-0.125 1.309 0.117 1.719 0.633 0.301 0.433 0.43 0.965 0.359 1.488v1.852c0.071 0.523-0.058 1.054-0.359 1.488-0.414 0.512-1.074 0.754-1.719 0.629z"/><path transform="scale(1.3333)" d="m369.84 149.68c-0.645 0.125-1.309-0.117-1.719-0.629-0.301-0.434-0.429-0.965-0.363-1.488v-1.852c-0.066-0.523 0.062-1.055 0.363-1.488 0.41-0.516 1.071-0.762 1.719-0.633h2.391c0.644-0.125 1.308 0.117 1.718 0.633 0.301 0.433 0.43 0.965 0.36 1.488v1.852c0.07 0.523-0.059 1.054-0.36 1.488-0.414 0.512-1.074 0.754-1.718 0.629z"/><path transform="scale(1.3333)" d="m393.88 149.68c-0.641 0.125-1.301-0.117-1.711-0.629-0.301-0.434-0.43-0.965-0.36-1.488v-1.852c-0.066-0.523 0.063-1.055 0.36-1.488 0.41-0.512 1.07-0.758 1.711-0.633h2.39c0.645-0.125 1.309 0.117 1.719 0.633 0.301 0.433 0.43 0.965 0.36 1.488v1.852c0.074 0.523-0.055 1.054-0.36 1.488-0.414 0.512-1.074 0.754-1.719 0.629z"/><path transform="scale(1.3333)" d="m417.93 149.68c-0.641 0.125-1.301-0.117-1.707-0.629-0.305-0.434-0.43-0.965-0.364-1.488v-1.852c-0.066-0.523 0.063-1.055 0.364-1.488 0.406-0.512 1.066-0.758 1.707-0.633h2.39c0.649-0.125 1.317 0.117 1.731 0.633 0.301 0.433 0.429 0.965 0.359 1.488v1.852c0.07 0.523-0.058 1.054-0.359 1.488-0.414 0.515-1.082 0.758-1.731 0.629z"/><path transform="scale(1.3333)" d="m77.672 150.06c0 1.8-0.07 2.84 2.14 2.84h1.641c1.297 0 1.906-0.098 2.238-1.399 0.161-0.754 0.829-1.297 1.598-1.301 0.899-0.015 1.637 0.703 1.641 1.602-0.082 0.98-0.465 1.914-1.098 2.668-1.172 1.402-2.711 1.64-4.41 1.64h-1.641c-1.551 0.106-3.066-0.484-4.14-1.609-1.239-1.371-1.168-2.738-1.168-4.48v-8.707h-1c-0.942 0-2.211-0.204-2.211-1.602s1.14-1.598 2.211-1.598h1v-3.281c0-1.101 0.23-2.211 1.597-2.211 1.371 0 1.602 1.102 1.602 2.211v3.281h5.379c1.07 0 2.211 0.227 2.211 1.598s-1.27 1.602-2.211 1.602h-5.379v8.757z"/><path transform="scale(1.3333)" d="m101.17 156.1c-1.039 0.168-2.098-0.152-2.867-0.871l-1.371-1.199c-1.145-0.828-1.77-2.199-1.641-3.609v-6.18c-0.184-1.465 0.414-2.922 1.57-3.84l1.141-1c0.91-0.965 2.215-1.461 3.539-1.34h2.969c1.293-0.128 2.578 0.297 3.543 1.172l1.297 1c1.472 1.168 1.672 2.41 1.672 4.18v2.57c0 1.84-0.301 2.367-2.211 2.367h-10.301v1.071c0.047 0.359 0.211 0.691 0.472 0.941l0.801 0.871c0.594 0.496 1.371 0.715 2.137 0.598h6.891c1.07 0 2.211 0.23 2.211 1.602 0 1.367-1.27 1.609-2.211 1.609h-7.618zm-2.66-9.886h9.293v-1.91c0.097-0.536-0.047-1.086-0.403-1.5l-1.238-1.071c-0.449-0.316-0.996-0.457-1.539-0.402h-2.711c-0.574-0.063-1.152 0.07-1.64 0.371l-1.102 0.801c-0.496 0.308-0.762 0.89-0.668 1.469v2.269z"/><path transform="scale(1.3333)" d="m119.35 145.55c-0.18-1.649 0.55-3.262 1.91-4.211l2.371-2c1.5-1.238 2.269-1.27 4.137-1.27h5.082c1.07 0 2.207 0.231 2.207 1.602s-1.27 1.598-2.207 1.598h-5.641c-0.687 0.05-1.336 0.332-1.84 0.8l-1.941 1.641c-0.5 0.281-0.828 0.797-0.867 1.371v4c0.039 0.574 0.367 1.09 0.867 1.367l1.941 1.641c0.504 0.469 1.153 0.754 1.84 0.801h5.648c0.942 0 2.211 0.199 2.211 1.597 0 1.403-1.14 1.614-2.211 1.614h-5.078c-1.871 0-2.64 0-4.14-1.274l-2.367-1.996c-1.36-0.949-2.094-2.566-1.911-4.211v-3.109z"/><path transform="scale(1.3333)" d="m152.38 141.31c-0.355 3e-3 -0.699 0.109-1 0.296l-4.75 3v9.333c0 1.097-0.23 2.207-1.598 2.207-1.371 0-1.601-1.098-1.601-2.207v-20.258c0-1.102 0.23-2.211 1.601-2.211 1.368 0 1.598 1.097 1.598 2.211v7.187l2.609-1.711c0.836-0.621 1.832-0.992 2.871-1.07h2.141c1.152-0.047 2.274 0.375 3.109 1.172 1.438 1.238 1.368 2.609 1.438 4.347l0.332 10.102c0 1.141-0.129 2.41-1.57 2.41-1.442 0-1.571-1.101-1.602-2.172l-0.328-9.886c-0.07-1.543 0-2.743-1.77-2.743h-1.468z"/><path transform="scale(1.3333)" d="m170.68 144.58v9.328c0 1.102-0.231 2.211-1.602 2.211-1.367 0-1.598-1.101-1.598-2.211v-13.437c0-1.172 0.129-2.371 1.598-2.371 1.473 0 1.602 1.199 1.602 2.34v0.429l2.609-1.711c0.801-0.613 1.762-0.984 2.769-1.07h2.372c1.117-0.039 2.203 0.387 3 1.172 1.437 1.238 1.367 2.609 1.437 4.347l0.332 10.102c0 1.141-0.133 2.41-1.57 2.41-1.442 0-1.571-1.101-1.602-2.172l-0.328-9.886c-0.07-2-0.23-2.743-2.172-2.743h-1.07c-0.352 8e-3 -0.699 0.11-1 0.301z"/><path transform="scale(1.3333)" d="m191.5 144.08c-0.199-1.664 0.582-3.293 2-4.18 1.57-1.3 2.312-1.8 4.551-1.8h2.539c2.242 0 3 0.5 4.539 1.8 1.422 0.887 2.203 2.516 2 4.18v6.047c0 2.113-0.539 2.91-2.207 4.313-1.125 1.199-2.742 1.816-4.383 1.667h-2.539c-1.637 0.149-3.254-0.468-4.379-1.667-1.668-1.403-2.211-2.211-2.211-4.313v-6.047zm3.211 6.047c0 0.672 0.23 1.102 1.172 1.91 0.578 0.59 1.383 0.906 2.207 0.871h2.539c0.828 0.035 1.633-0.281 2.211-0.871 0.941-0.797 1.172-1.238 1.172-1.91v-6.047c0-0.672-0.231-1.101-1.172-1.91-0.578-0.59-1.383-0.906-2.211-0.871h-2.539c-0.824-0.035-1.629 0.281-2.207 0.871-0.942 0.801-1.172 1.238-1.172 1.91z"/><path transform="scale(1.3333)" d="m225.13 152.9h2.371c1.066 0 2.207 0.23 2.207 1.601s-1.207 1.609-2.207 1.609h-8.16c-0.942 0-2.211-0.199-2.211-1.609s1.141-1.601 2.211-1.601h2.539v-18.207h-2.539c-0.942 0-2.211-0.2-2.211-1.61s1.141-1.601 2.211-1.601h3.379c1.84 0 2.371 0.332 2.371 2.242v19.187z"/><path transform="scale(1.3333)" d="m239.67 144.08c-0.199-1.664 0.578-3.293 2-4.18 1.57-1.3 2.309-1.8 4.547-1.8h2.543c2.238 0 3 0.5 4.547 1.8 1.418 0.887 2.199 2.516 2 4.18v6.047c0 2.113-0.528 2.91-2.207 4.313-1.125 1.199-2.743 1.816-4.383 1.667h-2.539c-1.637 0.149-3.254-0.468-4.379-1.667-1.668-1.403-2.211-2.211-2.211-4.313v-6.047zm3.207 6.047c0 0.672 0.23 1.102 1.172 1.91 0.578 0.59 1.383 0.906 2.211 0.871h2.539c0.824 0.035 1.629-0.281 2.211-0.871 0.937-0.797 1.168-1.238 1.168-1.91v-6.047c0-0.672-0.231-1.101-1.168-1.91-0.582-0.59-1.387-0.906-2.211-0.871h-2.539c-0.828-0.035-1.633 0.281-2.211 0.871-0.942 0.801-1.172 1.238-1.172 1.91z"/><path transform="scale(1.3333)" d="m263.73 144.08c-0.101-1.23 0.293-2.449 1.102-3.379l2.34-1.84c0.539-0.507 1.258-0.785 2-0.773h3.109c1.184 0.207 2.277 0.762 3.141 1.602l0.797 0.64v-0.371c-0.125-0.988 0.644-1.867 1.64-1.871 1.399 0 1.571 1.172 1.571 2.242v15.68c0 2.906-0.231 3.508-1.571 4.648l-1.07 0.899c-1.07 1.015-2.531 1.515-4 1.371h-5.297c-0.941 0-2.211-0.199-2.211-1.602 0-1.398 1.141-1.597 2.211-1.597h5.879c0.609-0.028 1.184-0.293 1.598-0.743l0.8-0.738c0.329-0.367 0.497-0.848 0.469-1.34v-4.41l-0.668 0.672c-0.668 0.812-1.605 1.371-2.64 1.566h-3.778c-0.91 0.016-1.781-0.347-2.41-1l-2-1.808c-0.797-0.781-1.172-1.895-1-3v-4.879zm3.211 4.41c-0.09 0.586 0.051 1.184 0.399 1.668l1.34 1.071c0.265 0.214 0.601 0.32 0.941 0.3h2.34c0.562-0.121 1.078-0.414 1.469-0.839l2.468-2c0.25-0.301 0.368-0.684 0.332-1.071v-2.34c0.036-0.386-0.082-0.769-0.332-1.07l-2.468-2c-0.391-0.426-0.907-0.719-1.469-0.84h-2.34c-0.34-0.019-0.676 0.086-0.941 0.301l-1.34 1.07c-0.348 0.481-0.489 1.082-0.399 1.668v4.141z"/><path transform="scale(1.3333)" d="m297.32 152.9h2.41c1.071 0 2.211 0.23 2.211 1.601s-1.269 1.609-2.211 1.609h-8.156c-0.941 0-2.211-0.199-2.211-1.609s1.141-1.601 2.211-1.601h2.539v-11.586h-2.539c-0.941 0-2.211-0.204-2.211-1.602s1.141-1.598 2.211-1.598h3.379c1.84 0 2.367 0.329 2.367 2.239v12.57zm-4.828-21.286c-0.121-0.875 0.625-1.621 1.5-1.5h1.84c0.875-0.121 1.621 0.625 1.5 1.5v1.539c0.121 0.875-0.625 1.622-1.5 1.5h-1.84c-0.875 0.122-1.621-0.625-1.5-1.5z"/><path transform="scale(1.3333)" d="m317.75 156.1c-1.043 0.172-2.105-0.148-2.879-0.871l-1.371-1.199c-1.145-0.828-1.77-2.199-1.641-3.609v-6.18c-0.183-1.465 0.414-2.922 1.571-3.84l1.14-1c0.91-0.965 2.215-1.461 3.539-1.34h2.942c1.293-0.128 2.578 0.297 3.539 1.172l1.301 1c1.468 1.168 1.668 2.41 1.668 4.18v2.57c0 1.84-0.301 2.367-2.211 2.367h-10.297v1.071c0.043 0.359 0.211 0.691 0.469 0.941l0.8 0.871c0.594 0.496 1.375 0.715 2.141 0.598h6.887c1.07 0 2.211 0.23 2.211 1.602 0 1.367-1.27 1.609-2.211 1.609h-7.618zm-2.668-9.886h9.289v-1.91c0.098-0.536-0.047-1.086-0.402-1.5l-1.239-1.071c-0.449-0.316-0.996-0.457-1.539-0.402h-2.703c-0.57-0.063-1.148 0.07-1.636 0.371l-1.102 0.801c-0.5 0.308-0.762 0.89-0.668 1.469v2.269z"/><path transform="scale(1.3333)" d="m341.41 141.31c-0.668 0-1.808-0.133-1.808 0.898 0.047 0.473 0.402 0.855 0.871 0.941l8 3.637c2.07 0.942 3.136 2.242 3.136 4.551 0 3.242-2.207 4.781-5.277 4.781h-4.949c-1.672 0-2.813-0.07-4-1-0.602-0.472-1.469-1.07-1.469-1.871 0.02-0.902 0.766-1.617 1.668-1.601 0.481-0.012 0.938 0.199 1.238 0.57 0.727 0.578 1.657 0.828 2.571 0.703h4.34c1.14 0 2.671 0.098 2.671-1.773 0-0.77-0.941-1.27-1.671-1.598l-7.547-3.442c-1.77-0.796-2.813-1.839-2.813-3.906 8e-3 -2.387 2.035-4.261 4.41-4.082h5.481c1.769 0 2.508 0.102 3.711 1.102 0.691 0.355 1.168 1.035 1.269 1.808-0.019 0.891-0.75 1.606-1.64 1.602-0.536 4e-3 -1.043-0.246-1.371-0.672-0.528-0.516-1.27-0.754-2-0.641h-4.879z"/><path transform="scale(1.3333)" d="m0.02 0h7.367v94.23c-0.032 1.368 1 2.52 2.359 2.641 1.473 0.301 2.836-0.859 2.781-2.359v-21.688c0-5 1.668-7.648 4.871-11l23.907-24.058c2.066-1.942 4.8-3.016 7.64-3 5.25 0.031 9.547 4.199 9.727 9.449-0.121 3.039-1.301 5.937-3.328 8.199l-15.43 15.129c-1.258 1.18-2.09 2.742-2.367 4.441 0.297 1.211 0.922 2.317 1.808 3.2l17.368 17.367c2.23 2.23 3.339 3.34 6.531 4.312v7.086c-4.871 0-7.649-1.937-10.84-5.137l-18.769-19c-2.118-2.082-3.446-4.835-3.758-7.789 0.328-3.503 1.847-6.793 4.308-9.308l16-16c0.625-0.465 1.032-1.172 1.117-1.949 0-1-1.398-2.641-2.367-2.641-0.773 0.094-1.476 0.496-1.941 1.121l-23.078 23.066c-3.059 2.911-4.309 4.583-4.309 8.891v19.879c0 5.473-4.398 9.926-9.871 10-5.437-0.102-9.777-4.562-9.726-10z"/><path transform="scale(1.3333)" d="m115.66 40.168c-3.468-3.473-6.808-4.871-11.996-4.871h-17.098c-7.64 0-12.789 5.148-12.789 12.789v25.996c0 4.172 0.559 8.469 3.618 11.391l14 14.457c3.539 3.351 8.246 5.191 13.117 5.132h17.101c7.918 0 12.508-5.14 12.508-12.781v-27.656c-0.109-3.914-1.765-7.621-4.609-10.309zm-3.996 6.246 11.676 12c1.801 2.219 3.48 4.309 3.48 7.371v26.527c0 3.059-1.949 5.418-5.148 5.418h-18.52c-2.41 4e-3 -4.703-1.066-6.25-2.918l-13.386-13.648c-2.082-2.223-2.082-4.582-2.082-7.359v-25.489c-0.242-3.246 2.465-5.949 5.711-5.699h16.25c2.918 0 5.148 0.84 8.199 3.75"/><path transform="scale(1.3333)" d="m145.82 34.746h7.688v59.207c-0.078 1.379 0.98 2.563 2.359 2.637 1.473 0.293 2.828-0.86 2.782-2.36v-21.687c0-5 1.531-7.367 4.871-10.699l23.625-24.328c1.828-2.164 4.535-3.391 7.371-3.34 7.218 0 11.668 6.262 11.668 13.34v43.355c0 2.789 0.699 4.731 2.922 6v7.09c-6.25-0.551-10.282-4.859-10.282-11.121v-44.524c0-3.058-1.121-5.14-4.179-5.14-1.532 0-2.918 1.25-4 2.359l-21.129 21c-2.778 2.637-3.996 5.149-3.996 8.899v19.878c0 2.653-1.059 5.2-2.934 7.075-1.879 1.875-4.422 2.925-7.078 2.925-5.438-0.101-9.777-4.562-9.727-10v-60.593z"/><path transform="scale(1.3333)" d="m220.17 35.855h7.332v59.207c0 1.25 1 2.93 2.359 2.649 1.481-0.149 2.582-1.434 2.5-2.918v-19.328c0-6.262 1.387-8.903 5.707-13.34l22.231-22c2.5-2.367 5.137-4 8.617-4 6.25 0 11.531 5.141 11.531 10.281v2.782h-7.371v-1.954c0-2.5-1.39-3.468-3.328-3.468-1.625 7e-3 -3.18 0.66-4.32 1.808l-22.231 22c-2.5 2.5-3.199 3.891-3.199 7.367v20.711c0 5.418-5 9.727-10.418 9.727s-9.449-4.867-9.449-10.289v-59.235z"/><path transform="scale(1.3333)" d="m340.26 35.855c6.668 0 11.39 5.422 11.39 12v46.696c4e-3 5.605-4.285 10.281-9.871 10.761-5.14 0-10.277-3.472-10.277-8.761v-23.586c0-2.922-1.672-4.59-4.59-4.59h-23.898c-3.762 0-4.602 2.23-4.602 5.418v18.519c0 3.34 1.402 5.418 5.152 5.418h20.836v7.36h-21.105c-7.93 0-12.512-5.141-12.512-12.778v-18.199c0-7 3.473-13.199 11.399-13.199h24.738c6.812 0 12 4.582 12 11.391v22.238c0 1.387 0.84 3.199 2.648 3.199 1.383 0 2.493-1.812 2.493-3.199v-46.457c0.117-2.738-2.133-4.988-4.871-4.871h-35.895c-2.781 0-3.352 0.691-4.602 2.922h-7.367c0.606-5.84 5.524-10.282 11.399-10.289h37.535z"/><path transform="scale(1.3333)" d="m423.08 95.621c-0.023 5.617-4.527 10.188-10.141 10.289-5.699 0-10-4.871-10-10.57v-20.156c0-3.469-0.289-4-2.648-6.52l-23.059-23.078c-0.914-1.043-2.23-1.648-3.621-1.668-2.09 0-3.476 2.496-3.476 5.277v43.117c0 3.059 1.527 6 4.867 6h10c2.769 0 3.609-1.109 4.859-2.921h7.371c-0.375 5.687-5.14 10.086-10.839 10h-11.399c-8.762 0-12.23-5.149-12.23-13.348v-45.906c0-5.141 5.699-9.449 11.398-9.449 2.691-0.126 5.324 0.82 7.32 2.628l24.746 24.739c3.192 3.187 4.313 5.687 4.313 10.289v20.996c0.027 1.496 1.152 2.742 2.637 2.922 1.48-0.153 2.578-1.438 2.5-2.922v-94.231h7.359v94.512z"/></g></svg>
